SplineFontDB: 3.2
FontName: NotoSansTagalog-Bold
FullName: Noto Sans Tagalog Bold
FamilyName: Noto Sans Tagalog
Weight: Bold
Copyright: Copyright (c) 2020, The Noto Sans Tagalog Project Authors\n\nThis Font Software is licensed under the SIL Open Font License, Version 1.1.
Version: 3.0
ItalicAngle: 0
UnderlinePosition: -250
UnderlineWidth: 100
Ascent: 1600
Descent: 400
InvalidEm: 0
UFOAscent: 1600
UFODescent: -400
LayerCount: 2
Layer: 0 0 "Back" 1
Layer: 1 0 "public.default" 0 "glyphs"
StyleMap: 0x0040
FSType: 0
OS2Version: 0
OS2_WeightWidthSlopeOnly: 0
OS2_UseTypoMetrics: 0
CreationTime: 1596957163
ModificationTime: 1597245134
PfmFamily: 33
TTFWeight: 700
TTFWidth: 5
LineGap: 0
VLineGap: 0
Panose: 2 11 5 2 4 5 4 2 2 4
OS2TypoAscent: 2138
OS2TypoAOffset: 0
OS2TypoDescent: -586
OS2TypoDOffset: 0
OS2TypoLinegap: 0
OS2WinAscent: 2138
OS2WinAOffset: 0
OS2WinDescent: 586
OS2WinDOffset: 0
HheadAscent: 2138
HheadAOffset: 0
HheadDescent: -586
HheadDOffset: 0
OS2SubXSize: 1300
OS2SubYSize: 1200
OS2SubXOff: 0
OS2SubYOff: 150
OS2SupXSize: 1300
OS2SupYSize: 1200
OS2SupXOff: 0
OS2SupYOff: 700
OS2StrikeYSize: 100
OS2StrikeYPos: 644
OS2CapHeight: 1428
OS2XHeight: 1072
OS2FamilyClass: 2048
OS2Vendor: 'GOOG'
OS2CodePages: 00000001.00000000
OS2UnicodeRanges: 80000003.00002000.00100000.00000000
Lookup: 258 0 0 "OldRaKern" { "OldRaKern-1" [300,0,2] } ['kern' ('DFLT' <'dflt' > 'hano' <'dflt' > 'tagl' <'TGL ' 'dflt' > ) ]
Lookup: 258 0 0 "PamudpodKern" { "PamudpodKern-1" [150,0,2] } ['kern' ('DFLT' <'dflt' > 'hano' <'dflt' > 'tagl' <'TGL ' 'dflt' > ) ]
Lookup: 260 0 0 "markMarkPositioninginTagaloglookup0" { "markMarkPositioninginTagaloglookup0 subtable"  } ['mark' ('DFLT' <'dflt' > 'hano' <'dflt' > 'tagl' <'dflt' > 'tagl' <'TGL ' > ) ]
Lookup: 260 0 0 "markMarkPositioninginTagaloglookup1" { "markMarkPositioninginTagaloglookup1 subtable"  } ['mark' ('DFLT' <'dflt' > 'hano' <'dflt' > 'tagl' <'dflt' > 'tagl' <'TGL ' > ) ]

StartChar: .notdef
Encoding: 0 0 0
GlifName: _notdef
Width: 1200
VWidth: 0
Flags: HMW
LayerCount: 2
Fore
SplineSet
188 0 m 257
 188 1428 l 257
 1010 1428 l 257
 1010 0 l 257
 188 0 l 257
290 102 m 257
 908 102 l 257
 908 1326 l 257
 290 1326 l 257
 290 102 l 257
EndSplineSet
EndChar

StartChar: uni1700
Encoding: 4 5888 4
GlifName: uni1700
Width: 2068
VWidth: 0
GlyphClass: 2
Flags: HMWO
LayerCount: 2
Fore
SplineSet
168 606 m 257
 168 886 l 257
 516 886 l 257
 516 606 l 257
 168 606 l 257
168 966 m 257
 168 1246 l 257
 908 1246 l 257
 908 966 l 257
 168 966 l 257
405 1020 m 256
 403.019037626 1196.3056513 323.752695944 1329.24487608 173 1352 c 257
 214 1628 l 257
 498.362405563 1583.87479914 682.755016386 1347.76760759 685 1020 c 256
 685 896.884851885 662.91631717 801.323965554 614 601 c 256
 597.133678495 533.534713982 577 438.13123448 577 388 c 256
 577 306.058843029 592.40538329 207 669 207 c 256
 725 207 757.855469041 241.855469041 792 276 c 256
 834 318 879 379 929 458 c 258
 1151 812 l 257
 1235.57263222 952.95438703 1320.89849102 1099.89849102 1412 1191 c 256
 1488.52662218 1267.52662218 1605 1340 1726 1340 c 257
 1913.40546716 1340 2046.02955355 1234.23490607 2098 1092 c 257
 1834 996 l 257
 1819.36611076 1032.5847231 1786.8550424 1060 1741 1060 c 256
 1662.55059371 1060 1601.06225527 989.941632151 1565 941 c 256
 1530.56331145 895.084415262 1436.17723977 736.580368875 1389 664 c 257
 1167 310 l 258
 1105 211 1045 134 990 78 c 256
 909.283245869 -2.71675413145 809.763691057 -73 668 -73 c 257
 506.469551234 -67.2310554012 402.902420544 20.2002946738 346 137 c 256
 313 206 297 285 297 371 c 256
 297 462.686801625 315.497558835 568.615845632 342 668 c 256
 384.962147082 844.370919599 405 928.486020252 405 1020 c 256
EndSplineSet
EndChar

StartChar: uni1701
Encoding: 5 5889 5
GlifName: uni1701
Width: 2022
VWidth: 0
GlyphClass: 2
Flags: HMW
LayerCount: 2
Fore
SplineSet
32 149 m 257
 156 399 l 257
 213 371 272 360 333 362 c 256
 396 366 453 384 505 416 c 256
 528 431 548 448 565 465 c 256
 589 489 609 516 625 545 c 256
 654 600 668 657 668 717 c 257
 948 725 l 257
 952 666 965 613 988 563 c 257
 1028 615 1054 680 1066 743 c 257
 1344 716 l 257
 1344 639 1362 570 1397 507 c 256
 1414 479 1432 456 1451 436 c 256
 1467 421 1483 408 1499 397 c 256
 1541 372 1584 360 1626 360 c 256
 1670 363 1709 377 1742 402 c 257
 1915 182 l 257
 1833 119 1739 85 1635 80 c 258
 1634 80 l 258
 1532 78 1418 115 1349 161 c 256
 1296 196 1261 230 1253 238 c 256
 1221 270 1194 306 1169 344 c 257
 1162 337 1156 331 1150 325 c 256
 1116 292 1080 262 1042 236 c 258
 944 170 l 257
 862 256 l 258
 843 277 825 298 809 319 c 257
 794 300 779 283 763 267 c 256
 730 235 694 206 656 181 c 258
 655 179 l 257
 561 121 458 89 348 82 c 258
 347 82 l 258
 236 78 131 100 32 149 c 257
12 980 m 257
 200 1188 l 257
 289 1109 395 1065 518 1056 c 256
 618 1050 758 1075 937 1132 c 258
 956 1138 l 258
 1163 1204 1326 1237 1447 1237 c 256
 1467 1237 1483 1237 1499 1236 c 256
 1700 1222 1870 1149 2009 1017 c 257
 1815 815 l 257
 1724 901 1613 947 1482 956 c 256
 1470 957 1459 957 1447 957 c 256
 1354 956 1219 928 1042 871 c 258
 1022 865 l 258
 807 797 633 767 498 776 c 256
 310 790 148 859 12 980 c 257
EndSplineSet
EndChar

StartChar: uni1702
Encoding: 6 5890 6
GlifName: uni1702
Width: 1070
VWidth: 0
GlyphClass: 2
Flags: HMW
LayerCount: 2
Fore
SplineSet
317 1000 m 257
 187 1248 l 257
 439 1378 737 1392 908 1219 c 256
 970 1152 1023 1056 1007 933 c 256
 994 845 951 771 900 717 c 257
 988 641 1066 511 1047 355 c 256
 1028 207 966 101 834 24 c 256
 600 -112 328 -101 70 -3 c 257
 170 259 l 257
 371 184 637 170 743 318 c 256
 779 376 773 448 730 493 c 256
 674 546 609 551 492 552 c 256
 472 552 452 552 432 552 c 258
 396 552 l 257
 396 832 l 257
 432 832 l 258
 527 832 605 837 658 867 c 256
 684 882 705 903 717 934 c 256
 744 1002 679 1053 617 1064 c 256
 524 1077 424 1056 317 1000 c 257
EndSplineSet
EndChar

StartChar: uni1703
Encoding: 7 5891 7
GlifName: uni1703
Width: 1968
VWidth: 0
GlyphClass: 2
Flags: HMW
AnchorPoint: "Anchor1" 1078 0 basechar 0
AnchorPoint: "Anchor0" 976 1386 basechar 0
AnchorPoint: "Anchor-1" 1078 0 basechar 0
AnchorPoint: "Anchor-0" 976 1386 basechar 0
LayerCount: 2
Fore
SplineSet
856 964 m 257
 1136 964 l 257
 1136 268 l 257
 856 268 l 257
 856 964 l 257
42 166 m 257
 242 362 l 257
 243 361 244 360 245 359 c 256
 310 295 388 261 480 254 c 256
 529 252 579 257 630 270 c 256
 671 281 725 302 794 332 c 258
 1070 452 l 258
 1162 492 1235 520 1289 535 c 258
 1290 535 l 258
 1379 559 1465 569 1546 566 c 258
 1547 566 l 257
 1682 558 1804 518 1912 446 c 257
 1756 214 l 257
 1689 258 1615 281 1534 286 c 256
 1480 288 1424 281 1365 265 c 256
 1322 253 1261 230 1182 196 c 258
 906 76 l 258
 823 40 755 14 703 0 c 258
 703 0 l 258
 621 -21 541 -30 464 -26 c 258
 463 -26 l 257
 299 -14 161 48 47 161 c 256
 45 163 44 164 42 166 c 257
42 878 m 257
 242 1074 l 257
 243 1073 244 1072 245 1071 c 256
 310 1007 388 973 480 966 c 256
 529 964 579 969 630 982 c 256
 671 993 725 1014 794 1044 c 258
 1070 1164 l 258
 1162 1204 1235 1232 1289 1247 c 258
 1290 1247 l 258
 1379 1271 1465 1281 1546 1278 c 258
 1547 1278 l 257
 1682 1270 1804 1230 1912 1158 c 257
 1756 926 l 257
 1689 970 1615 993 1534 998 c 256
 1480 1000 1424 993 1365 977 c 256
 1322 965 1260 942 1182 908 c 258
 906 788 l 258
 823 752 755 726 703 712 c 258
 703 712 l 258
 621 691 541 682 464 686 c 258
 463 686 l 257
 299 698 161 760 47 873 c 256
 45 875 44 876 42 878 c 257
EndSplineSet
EndChar

StartChar: uni1704
Encoding: 8 5892 8
GlifName: uni1704
Width: 1680
VWidth: 0
GlyphClass: 2
Flags: HMW
AnchorPoint: "Anchor1" 1090 0 basechar 0
AnchorPoint: "Anchor0" 800 1386 basechar 0
AnchorPoint: "Anchor-1" 1090 0 basechar 0
AnchorPoint: "Anchor-0" 800 1386 basechar 0
LayerCount: 2
Fore
SplineSet
187 1248 m 257
 310 1312 444 1348 569 1348 c 0
 700 1348 821 1308 908 1219 c 256
 962 1161 1010 1080 1010 978 c 0
 1010 865 958 779 900 717 c 257
 979 649 1044 537 1044 402 c 0
 1044 225 972 104 834 24 c 256
 713 -46 582 -77 448 -77 c 0
 323 -77 195 -50 70 -3 c 257
 170 259 l 257
 260 225 362 204 458 204 c 0
 577 204 684 236 743 318 c 256
 759 344 767 372 767 400 c 0
 767 435 754 468 730 493 c 256
 674 546 609 551 492 552 c 258
 396 552 l 257
 396 832 l 257
 432 832 l 258
 568 832 723 840 723 965 c 0
 723 1035 642 1068 564 1068 c 0
 487 1068 404 1045 317 1000 c 257
 187 1248 l 257
1088 1006 m 0
 1038 1006 999 984 967 961 c 257
 801 1186 l 257
 878 1242 968 1286 1087 1286 c 0
 1320 1286 1448 1123 1468 907 c 256
 1470 879 1472 797 1472 700 c 258
 1472 349 l 258
 1473 226 1509 212 1627 206 c 258
 1667 204 l 257
 1653 -76 l 257
 1613 -74 l 258
 1468 -66 1384 -40 1306 32 c 256
 1226 108 1193 194 1192 348 c 258
 1192 700 l 258
 1192 787 1190 862 1189 882 c 256
 1182 950 1161 1006 1088 1006 c 0
EndSplineSet
EndChar

StartChar: uni1705
Encoding: 9 5893 9
GlifName: uni1705
Width: 2022
VWidth: 0
GlyphClass: 2
Flags: HMW
AnchorPoint: "Anchor1" 1128 0 basechar 0
AnchorPoint: "Anchor0" 976 1386 basechar 0
AnchorPoint: "Anchor-1" 1128 0 basechar 0
AnchorPoint: "Anchor-0" 976 1386 basechar 0
LayerCount: 2
Fore
SplineSet
1516 33 m 257
 1444 303 l 257
 1518 323 1580 358 1629 407 c 256
 1633 411 1637 415 1640 418 c 256
 1666 449 1685 479 1697 510 c 256
 1707 542 1710 571 1705 598 c 256
 1699 623 1688 644 1673 659 c 258
 1670 662 l 258
 1650 677 1629 686 1606 688 c 256
 1581 688 1557 682 1533 671 c 256
 1507 657 1476 636 1440 607 c 256
 1400 575 1367 549 1338 529 c 256
 1310 510 1284 496 1264 486 c 258
 1263 486 l 258
 1223 469 1183 458 1143 451 c 258
 1141 450 l 258
 1111 446 1074 444 1032 444 c 258
 956 444 l 257
 956 724 l 257
 1032 724 l 258
 1061 724 1084 725 1100 727 c 256
 1117 730 1133 735 1148 741 c 256
 1190 764 1220 789 1264 825 c 256
 1318 869 1366 901 1410 923 c 258
 1411 923 l 258
 1478 955 1548 970 1617 968 c 258
 1618 968 l 257
 1707 963 1786 931 1853 874 c 256
 1858.84817885 868.151821147 1865.16414985 862.835850145 1871 857 c 256
 1925 801 1962 735 1979 657 c 258
 1980 653 l 258
 1994 575 1988 497 1962 418 c 258
 1961 417 l 258
 1937 350 1900 288 1849 231 c 258
 1847 229 l 258
 1840 221 1833 215 1827 209 c 256
 1741 124 1638 66 1516 33 c 257
291 1346 m 257
 429 1102 l 257
 365 1066 l 258
 342 1052 328 1044 316 1032 c 256
 309 1026 311 1016 318 1009 c 256
 327 1004 336 1001 346 1000 c 256
 355 1001 366 1002 377 1005 c 256
 403 1012 436 1025 470 1040 c 256
 518 1061 562 1076 601 1086 c 256
 639 1095 674 1100 705 1100 c 258
 707 1100 l 257
 783 1097 850 1076 910 1036 c 257
 912 1034 l 258
 931 1020 948 1006 963 991 c 256
 995 959 1020 923 1041 882 c 258
 1042 881 l 257
 1084 792 1104 682 1100 552 c 258
 1100 551 l 258
 1097 478 1087 414 1071 360 c 258
 1070 359 l 258
 1045 285 1009 224 962 176 c 256
 958 172 955 168 951 165 c 258
 950 164 l 257
 887 108 811 75 725 64 c 258
 722 64 l 258
 665 59 597 64 517 79 c 256
 461 90 421 95 398 96 c 256
 375 95 358 90 348 83 c 256
 341 78 338 70 337 56 c 257
 317 -200 l 257
 261 -195 211 -175 167 -141 c 258
 164 -139 l 257
 161 -137 l 258
 155 -131 149 -126 144 -121 c 256
 111 -87 88 -48 74 -3 c 258
 73 -0 l 257
 59 53 60 107 76 161 c 258
 77 164 l 257
 78 167 l 258
 94 210 118 248 151 281 c 256
 155 285 159 288 162 291 c 258
 164 293 l 257
 166 295 l 258
 227 345 302 372 391 375 c 258
 392 376 l 258
 434 376 493 368 571 353 c 256
 623 343 664 339 692 342 c 256
 720 346 743 356 762 372 c 256
 763 373 763 373 764 374 c 256
 781 392 793 415 803 443 c 256
 812 475 818 515 820 561 c 256
 822 645 813 711 791 757 c 256
 780 778 767 792 751 805 c 256
 725 820 702 823 669 815 c 256
 643 808 614 798 581 783 c 256
 531 761 486 744 447 734 c 256
 409 724 374 720 343 720 c 258
 340 720 l 257
 263 723 196 748 139 794 c 258
 137 795 l 257
 135 797 l 258
 129 802 124 807 120 811 c 256
 69 864 40 927 33 1000 c 258
 32 1003 l 257
 29 1077 50 1142 94 1202 c 258
 95 1204 l 257
 97 1206 l 258
 104 1215 111 1223 118 1230 c 256
 146 1257 182 1283 226 1309 c 258
 227 1310 l 257
 291 1346 l 257
EndSplineSet
EndChar

StartChar: uni1706
Encoding: 10 5894 10
GlifName: uni1706
Width: 1950
VWidth: 0
GlyphClass: 2
Flags: HMW
AnchorPoint: "Anchor1" 1078 0 basechar 0
AnchorPoint: "Anchor0" 976 1386 basechar 0
AnchorPoint: "Anchor-1" 1078 0 basechar 0
AnchorPoint: "Anchor-0" 976 1386 basechar 0
LayerCount: 2
Fore
SplineSet
320 748 m 257
 320 748 326 747 336 747 c 256
 344 747 353 747 364 748 c 256
 386 750 418 763 450 781 c 256
 528 825 582 874 662 942 c 256
 792 1052 894 1129 970 1173 c 256
 1118 1258 1269 1309 1423 1327 c 256
 1599 1345 1773 1317 1906 1267 c 257
 1807 1005 l 257
 1716 1039 1605 1059 1485 1049 c 256
 1359 1036 1234 993 1111 921 c 256
 885 787 714 600 604 352 c 256
 553 234 522 112 511 -12 c 257
 233 12 l 257
 247 171 286 327 351 472 c 257
 301 474 256 485 216 503 c 256
 133 541 77 611 60 703 c 256
 39 833 104 923 183 972 c 257
 320 748 l 257
EndSplineSet
EndChar

StartChar: uni1707
Encoding: 11 5895 11
GlifName: uni1707
Width: 2096
VWidth: 0
GlyphClass: 2
Flags: HMW
AnchorPoint: "Anchor1" 1104 0 basechar 0
AnchorPoint: "Anchor0" 1054 1386 basechar 0
AnchorPoint: "Anchor-1" 1104 0 basechar 0
AnchorPoint: "Anchor-0" 1054 1386 basechar 0
LayerCount: 2
Fore
SplineSet
387 1017 m 257
 562 846 l 257
 530 814 l 258
 447 730 403 654 403 539 c 256
 403 419 522 360 640 360 c 256
 901 360 1239 536 1470 536 c 256
 1692 536 1884 466 2044 331 c 257
 1864 117 l 257
 1747 215 1625 255 1487 255 c 256
 1204 255 929 82 644 82 c 256
 361 82 121 256 121 538 c 256
 121 751 242 871 355 985 c 258
 387 1017 l 257
51 973 m 257
 233 1187 l 257
 344 1092 459 1056 587 1056 c 256
 851 1056 1240 1229 1505 1229 c 256
 1703 1229 1880 1170 2046 1025 c 257
 1862 815 l 257
 1747 914 1630 952 1499 952 c 256
 1238 952 847 778 582 778 c 256
 388 778 215 834 51 973 c 257
EndSplineSet
EndChar

StartChar: uni1708
Encoding: 12 5896 12
GlifName: uni1708
Width: 1700
VWidth: 0
GlyphClass: 2
Flags: HMW
AnchorPoint: "Anchor1" 874 -176 basechar 0
AnchorPoint: "Anchor0" 820 1386 basechar 0
AnchorPoint: "Anchor-0" 820 1386 basechar 0
AnchorPoint: "Anchor-1" 874 -176 basechar 0
LayerCount: 2
Fore
SplineSet
420 47 m 257
 156 -47 l 257
 94 129 69 314 80 488 c 256
 93 697 158 891 271 1040 c 256
 389 1192 573 1323 810 1338 c 256
 1074 1351 1281 1221 1407 1071 c 256
 1538 912 1613 716 1626 484 c 256
 1635 302 1607 124 1543 -49 c 257
 1281 49 l 257
 1334 192 1354 345 1342 488 c 256
 1328 660 1268 817 1163 923 c 256
 1085 1000 969 1065 826 1058 c 256
 679 1047 567 964 494 871 c 256
 414 763 369 628 358 468 c 256
 351 327 371 186 420 47 c 257
616 -38 m 257
 659 39 704 95 765 154 c 257
 758 157 750 160 743 164 c 256
 685 194 638 244 632 308 c 256
 624 392 653 448 713 486 c 258
 743 505 l 257
 719 516 697 535 678 558 c 256
 653 588 635 626 634 662 c 256
 633 699 641 729 657 754 c 256
 670 774 688 791 708 806 c 258
 765 847 l 257
 707 918 680 999 680 1130 c 258
 680 1178 l 257
 960 1178 l 257
 960 1130 l 258
 960 1067 964 1032 998 1011 c 256
 1056 980 1102 936 1107 864 c 256
 1109 827 1101 793 1086 764 c 256
 1070 731 1046 705 1018 684 c 257
 1053 666 1079 646 1098 624 c 256
 1124 594 1135 558 1135 510 c 256
 1134 432 1096 397 1047 366 c 258
 1015 345 l 257
 1047 329 1074 304 1094 274 c 256
 1115 242 1128 204 1128 164 c 256
 1128 92 1079 43 1029 9 c 256
 954 -42 905 -95 861 -174 c 257
 616 -38 l 257
EndSplineSet
EndChar

StartChar: uni1709
Encoding: 13 5897 13
GlifName: uni1709
Width: 2140
VWidth: 0
GlyphClass: 2
Flags: HMW
AnchorPoint: "Anchor1" 1180 0 basechar 0
AnchorPoint: "Anchor0" 976 1386 basechar 0
AnchorPoint: "Anchor-1" 1180 0 basechar 0
AnchorPoint: "Anchor-0" 976 1386 basechar 0
LayerCount: 2
Fore
SplineSet
1324 684 m 257
 1538 865 l 257
 1597 795 1646 729 1685 668 c 256
 1727 602 1758 535 1794 466 c 257
 1541 347 l 257
 1512 408 1479 469 1443 524 c 256
 1407 580 1367 633 1324 684 c 257
114 672 m 257
 114 952 l 257
 369 952 l 258
 441 952 499 949 545 926 c 256
 628 882 683 803 664 675 c 258
 640 519 l 258
 626 425 618 379 618 336 c 256
 618 263 635 207 698 200 c 256
 827 201 926 345 993 430 c 256
 1127 602 1280 871 1403 1073 c 256
 1492 1214 1593 1342 1807 1342 c 256
 1978 1342 2115 1231 2174 1102 c 257
 1918 986 l 257
 1899 1025 1859 1062 1805 1062 c 256
 1717 1062 1681 990 1641 927 c 258
 1418 559 l 258
 1334 422 1218 241 1080 107 c 4
 968 -2 841 -81 707 -81 c 256
 557 -81 446 4 391 105 c 256
 356 171 338 248 338 337 c 256
 338 392 356 498 370 600 c 24
 374 628 378 651 381 672 c 257
 371 672 362 672 352 672 c 2
 114 672 l 257
EndSplineSet
EndChar

StartChar: uni170A
Encoding: 14 5898 14
GlifName: uni170A_
Width: 1694
VWidth: 0
GlyphClass: 2
Flags: HMW
AnchorPoint: "Anchor1" 1032 -158 basechar 0
AnchorPoint: "Anchor0" 968 1386 basechar 0
AnchorPoint: "Anchor-1" 1032 -158 basechar 0
AnchorPoint: "Anchor-0" 968 1386 basechar 0
LayerCount: 2
Fore
SplineSet
1132 -77 m 256
 1003 -77 909 -32 833 35 c 257
 741 -23 615 -78 483 -78 c 256
 187 -78 15 163 53 472 c 256
 97 828 337 1154 630 1283 c 256
 724 1322 820 1342 914 1342 c 256
 1036 1342 1154 1310 1257 1249 c 256
 1487 1109 1665 829 1627 448 c 256
 1607 247 1518 85 1382 -2 c 256
 1315 -45 1231 -77 1132 -77 c 256
912 1062 m 256
 713 1062 581 938 489 812 c 256
 406 698 328 555 328 388 c 256
 328 285 378 202 488 202 c 256
 604 202 692 270 763 333 c 258
 894 450 l 257
 979 295 l 258
 1006 247 1057 202 1128 202 c 256
 1287 202 1352 369 1352 532 c 256
 1352 645 1327 744 1285 824 c 256
 1218 952 1093 1062 912 1062 c 256
EndSplineSet
EndChar

StartChar: uni170B
Encoding: 15 5899 15
GlifName: uni170B_
Width: 2060
VWidth: 0
GlyphClass: 2
Flags: HMW
AnchorPoint: "Anchor1" 1154 0 basechar 0
AnchorPoint: "Anchor0" 976 1386 basechar 0
AnchorPoint: "Anchor-1" 1154 0 basechar 0
AnchorPoint: "Anchor-0" 976 1386 basechar 0
LayerCount: 2
Fore
SplineSet
1147 524 m 257
 1033 524 989 524 822 524 c 256
 688 524 629 524 528 524 c 257
 424 776 l 257
 550 776 692 776 808 776 c 256
 950 776 1119 775 1277 776 c 257
 1147 524 l 257
1832 984 m 257
 1814 1022 1778 1057 1726 1057 c 256
 1636 1057 1596 986 1554 921 c 258
 1210 377 l 258
 1092 192 920 -84 664 -84 c 256
 414 -84 297 145 297 404 c 256
 297 533 313 632 341 752 c 256
 344 764 347 776 350 788 c 257
 342 788 335 788 328 788 c 258
 124 788 l 257
 124 1068 l 257
 328 1068 l 258
 427 1068 474 1067 532 1032 c 256
 595 992 643 935 643 837 c 256
 643 807 639 788 632 761 c 256
 598 627 577 531 577 402 c 256
 577 315 592 241 638 205 c 256
 648 200 656 197 664 196 c 256
 709 201 735 230 765 259 c 256
 837 332 907 422 974 527 c 256
 1089 708 1203 890 1318 1071 c 256
 1372 1154 1400 1206 1481 1259 c 256
 1564 1314 1639 1337 1724 1337 c 256
 1905 1337 2030 1226 2088 1096 c 257
 1832 984 l 257
EndSplineSet
EndChar

StartChar: uni170C
Encoding: 16 5900 16
GlifName: uni170C_
Width: 2158
VWidth: 0
GlyphClass: 2
Flags: HMW
AnchorPoint: "Anchor1" 1166 0 basechar 0
AnchorPoint: "Anchor0" 1040 1386 basechar 0
AnchorPoint: "Anchor-1" 1166 0 basechar 0
AnchorPoint: "Anchor-0" 1040 1386 basechar 0
LayerCount: 2
Fore
SplineSet
1673 939 m 257
 1703 925 1732 916 1771 916 c 256
 1825 916 1887 939 1887 993 c 256
 1887 1036 1848 1062 1803 1062 c 256
 1715 1062 1680 990 1641 927 c 258
 1418 559 l 258
 1301 368 1219 246 1087 113 c 256
 988 15 865 -80 700 -80 c 256
 554 -80 445 6 391 105 c 256
 356 171 338 248 338 337 c 256
 338 401 347 448 364 561 c 258
 381 672 l 257
 114 672 l 257
 114 952 l 257
 358 952 l 258
 433 952 497 950 545 926 c 256
 616 888 666 828 669 727 c 256
 667 617 618 428 618 337 c 256
 618 263 635 207 698 200 c 256
 827 201 926 345 993 430 c 256
 1127 602 1278 873 1403 1073 c 256
 1491 1214 1591 1342 1804 1342 c 256
 2006 1342 2167 1199 2167 994 c 256
 2167 773 1988 636 1771 636 c 256
 1685 636 1618 656 1555 685 c 257
 1673 939 l 257
EndSplineSet
EndChar

StartChar: uni170E
Encoding: 17 5902 17
GlifName: uni170E_
Width: 1826
VWidth: 0
GlyphClass: 2
Flags: HMW
AnchorPoint: "Anchor1" 1014 -98 basechar 0
AnchorPoint: "Anchor0" 976 1386 basechar 0
AnchorPoint: "Anchor-1" 1014 -98 basechar 0
AnchorPoint: "Anchor-0" 976 1386 basechar 0
LayerCount: 2
Fore
SplineSet
816 605 m 257
 785 637 761 673 745 714 c 0
 732 746 724 781 721 821 c 257
 624 788 536 772 453 772 c 256
 264 772 112 847 -2 968 c 257
 202 1160 l 257
 264 1095 349 1052 451 1052 c 256
 545 1052 664 1089 807 1163 c 256
 965 1245 1080 1298 1153 1320 c 256
 1227 1342 1305 1356 1394 1356 c 256
 1567 1356 1692 1303 1801 1226 c 257
 1645 994 l 257
 1566 1043 1487 1069 1385 1069 c 256
 1277 1069 1111 1028 1038 941 c 4
 1015 913 1001 880 1001 843 c 256
 1001 791 1047 786 1076 768 c 256
 1127 734 1168 687 1168 606 c 256
 1168 541 1139 497 1102 462 c 257
 1156 429 1206 375 1207 294 c 256
 1206 137 1073 103 995 23 c 256
 971 -3 951 -30 934 -57 c 257
 694 89 l 257
 736 157 789 218 849 269 c 257
 782 303 731 370 731 443 c 256
 731 510 770 570 816 605 c 257
EndSplineSet
EndChar

StartChar: uni170F
Encoding: 18 5903 18
GlifName: uni170F_
Width: 1522
VWidth: 0
GlyphClass: 2
Flags: HMW
AnchorPoint: "Anchor1" 914 -60 basechar 0
AnchorPoint: "Anchor0" 1074 1484 basechar 0
AnchorPoint: "Anchor-1" 914 -60 basechar 0
AnchorPoint: "Anchor-0" 1074 1484 basechar 0
LayerCount: 2
Fore
SplineSet
596 1215 m 257
 704 1340 854 1429 1039 1429 c 256
 1318 1429 1489 1234 1489 952 c 256
 1489 774 1441 609 1357 444 c 256
 1239 214 1035 -84 707 -84 c 256
 468 -84 319 94 319 333 c 256
 319 417 351 561 377 676 c 257
 365 676 354 676 342 676 c 2
 116 676 l 257
 116 956 l 257
 373 956 l 258
 481 956 543 936 597 883 c 256
 655 823 680 748 657 641 c 258
 633 534 l 258
 611 432 599 385 599 334 c 256
 599 254 628 196 704 196 c 256
 900 196 1036 433 1107 571 c 256
 1171 699 1211 812 1211 953 c 256
 1211 1073 1156 1149 1040 1149 c 256
 943 1149 864 1098 808 1033 c 257
 596 1215 l 257
EndSplineSet
EndChar

StartChar: uni1710
Encoding: 19 5904 19
GlifName: uni1710
Width: 1844
VWidth: 0
GlyphClass: 2
Flags: HMW
AnchorPoint: "Anchor1" 1218 -158 basechar 0
AnchorPoint: "Anchor0" 976 1386 basechar 0
AnchorPoint: "Anchor-1" 1218 -158 basechar 0
AnchorPoint: "Anchor-0" 976 1386 basechar 0
LayerCount: 2
Fore
SplineSet
512 -88 m 257
 284 -90 l 257
 284 1060 l 257
 40 1060 l 257
 40 1340 l 257
 564 1340 l 257
 564 568 l 257
 742 881 l 258
 828 1032 894 1127 975 1200 c 256
 1071 1283 1181 1348 1339 1348 c 256
 1577 1348 1768 1169 1768 942 c 256
 1768 834 1724 740 1671 678 c 257
 1752 608 1820 491 1820 362 c 256
 1820 157 1668 15 1505 -43 c 256
 1400 -79 1275 -88 1124 -88 c 258
 1032 -88 l 257
 1032 192 l 257
 1122 192 l 258
 1310 192 1528 198 1540 362 c 257
 1538 513 1356 524 1196 524 c 258
 1176 524 l 257
 1171 804 l 257
 1275 808 l 258
 1390 813 1488 827 1488 940 c 256
 1488 1014 1414 1067 1339 1067 c 256
 1255 1067 1197 1026 1149 979 c 256
 1104 933 1050 854 986 743 c 258
 512 -88 l 257
EndSplineSet
EndChar

StartChar: uni1711
Encoding: 20 5905 20
GlifName: uni1711
Width: 2098
VWidth: 0
GlyphClass: 2
Flags: HMW
AnchorPoint: "Anchor1" 1014 120 basechar 0
AnchorPoint: "Anchor0" 1014 1246 basechar 0
AnchorPoint: "Anchor-1" 1014 120 basechar 0
AnchorPoint: "Anchor-0" 1014 1246 basechar 0
LayerCount: 2
Fore
SplineSet
48 600 m 257
 232 812 l 257
 460 616 700 664 1027 768 c 256
 1456 903 1779 899 2053 635 c 257
 1859 433 l 257
 1654 629 1420 600 1099 498 c 256
 676 365 346 341 48 600 c 257
EndSplineSet
EndChar

StartChar: uni1712
Encoding: 21 5906 21
GlifName: uni1712
Width: 0
VWidth: 0
GlyphClass: 4
Flags: HMW
AnchorPoint: "Mkmk" -34 1560 basemark 0
AnchorPoint: "Mkmk" -630 1560 mark 0
AnchorPoint: "Anchor0" -342 1306 mark 0
AnchorPoint: "Anchor-0" -342 1306 mark 0
LayerCount: 2
Fore
SplineSet
-557 1555 m 256
 -557 1677 -457 1777 -335 1777 c 256
 -213 1777 -113 1677 -113 1555 c 256
 -113 1433 -213 1333 -335 1333 c 256
 -457 1333 -557 1433 -557 1555 c 256
EndSplineSet
EndChar

StartChar: uni1713
Encoding: 22 5907 22
GlifName: uni1713
Width: 0
VWidth: 0
GlyphClass: 4
Flags: HMW
AnchorPoint: "Mkmk" -506 -200 mark 0
AnchorPoint: "Mkmk" 90 -200 basemark 0
AnchorPoint: "Anchor1" -196 60 mark 0
AnchorPoint: "Anchor-1" -196 60 mark 0
LayerCount: 2
Fore
SplineSet
-418 -198 m 256
 -418 -76 -318 24 -196 24 c 256
 -74 24 26 -76 26 -198 c 256
 26 -320 -74 -420 -196 -420 c 256
 -318 -420 -418 -320 -418 -198 c 256
EndSplineSet
EndChar

StartChar: uni1714
Encoding: 23 5908 23
GlifName: uni1714
Width: 0
VWidth: 0
GlyphClass: 4
Flags: HMW
AnchorPoint: "Anchor1" -528 0 mark 0
AnchorPoint: "Anchor-1" -528 0 mark 0
LayerCount: 2
Fore
SplineSet
-614 -555 m 257
 -614 -380 l 257
 -792 -380 l 257
 -792 -202 l 257
 -614 -202 l 257
 -614 -23 l 257
 -436 -23 l 257
 -436 -202 l 257
 -261 -202 l 257
 -261 -380 l 257
 -436 -380 l 257
 -436 -555 l 257
 -614 -555 l 257
EndSplineSet
EndChar

StartChar: uni1735
Encoding: 24 5941 24
GlifName: uni1735
Width: 658
VWidth: 0
GlyphClass: 2
Flags: HMW
LayerCount: 2
Fore
SplineSet
244 -307 m 257
 -28 -245 l 257
 376 1531 l 257
 648 1469 l 257
 244 -307 l 257
EndSplineSet
EndChar

StartChar: uni1736
Encoding: 25 5942 25
GlifName: uni1736
Width: 1076
VWidth: 0
GlyphClass: 2
Flags: HMW
LayerCount: 2
Fore
SplineSet
664 -327 m 257
 392 -265 l 257
 796 1511 l 257
 1068 1449 l 257
 664 -327 l 257
244 -307 m 257
 -28 -245 l 257
 376 1531 l 257
 648 1469 l 257
 244 -307 l 257
EndSplineSet
EndChar

StartChar: uni25CC
Encoding: 29 9676 29
GlifName: uni25C_C_
Width: 1188
VWidth: 0
GlyphClass: 2
Flags: HMW
AnchorPoint: "Anchor1" 590 0 basechar 0
AnchorPoint: "Anchor0" 600 1180 basechar 0
AnchorPoint: "Anchor-1" 590 0 basechar 0
AnchorPoint: "Anchor-0" 600 1180 basechar 0
LayerCount: 2
Fore
SplineSet
646 1028 m 256
 646 992 629 974 594 974 c 256
 559 974 542 992 542 1028 c 256
 542 1063 559 1080 594 1080 c 256
 629 1080 646 1063 646 1028 c 256
816 992 m 256
 816 957 799 940 766 940 c 256
 729 940 710 957 710 992 c 256
 710 1028 729 1046 766 1046 c 256
 799 1046 816 1028 816 992 c 256
478 992 m 256
 478 957 460 940 424 940 c 256
 389 940 372 957 372 992 c 256
 372 1028 389 1046 424 1046 c 256
 460 1046 478 1028 478 992 c 256
960 896 m 256
 960 861 943 844 910 844 c 256
 874 844 856 861 856 896 c 256
 856 932 874 950 910 950 c 256
 943 950 960 932 960 896 c 256
334 896 m 256
 334 861 316 844 280 844 c 256
 245 844 228 861 228 894 c 256
 228 931 245 950 280 950 c 256
 316 950 334 932 334 896 c 256
1058 752 m 256
 1058 716 1040 698 1004 698 c 256
 969 698 952 716 952 752 c 256
 952 787 970 804 1006 804 c 256
 1041 804 1058 787 1058 752 c 256
236 752 m 256
 236 716 219 698 186 698 c 256
 149 698 130 716 130 752 c 256
 130 787 148 804 184 804 c 256
 219 804 236 787 236 752 c 256
1092 582 m 256
 1092 547 1075 530 1042 530 c 256
 1006 530 988 547 988 582 c 256
 988 617 1006 634 1042 634 c 256
 1075 634 1092 617 1092 582 c 256
202 582 m 256
 202 547 185 530 150 530 c 256
 114 530 96 547 96 582 c 256
 96 617 114 634 150 634 c 256
 185 634 202 617 202 582 c 256
1058 412 m 256
 1058 377 1040 360 1004 360 c 256
 969 360 952 377 952 412 c 256
 952 448 969 466 1004 466 c 256
 1040 466 1058 448 1058 412 c 256
236 412 m 256
 236 377 219 360 184 360 c 256
 148 360 130 377 130 412 c 256
 130 448 148 466 184 466 c 256
 219 466 236 448 236 412 c 256
960 266 m 256
 960 231 943 214 910 214 c 256
 874 214 856 231 856 266 c 256
 856 302 874 320 910 320 c 256
 943 320 960 302 960 266 c 256
334 266 m 256
 334 231 316 214 280 214 c 256
 245 214 228 231 228 266 c 256
 228 302 245 320 280 320 c 256
 316 320 334 302 334 266 c 256
816 170 m 256
 816 137 799 120 766 120 c 256
 729 120 710 137 710 170 c 256
 710 206 729 224 766 224 c 256
 799 224 816 206 816 170 c 256
478 174 m 256
 478 138 460 120 424 120 c 256
 389 120 372 137 372 170 c 256
 372 206 389 224 424 224 c 256
 460 224 478 207 478 174 c 256
646 138 m 256
 646 102 629 84 594 84 c 256
 559 84 542 102 542 138 c 256
 542 173 559 190 594 190 c 256
 629 190 646 173 646 138 c 256
EndSplineSet
EndChar

StartChar: uni170D
Encoding: 31 5901 30
GlifName: uni170D_
Width: 2096
VWidth: 0
GlyphClass: 2
Flags: HMW
AnchorPoint: "Anchor1" 924 0 basechar 0
AnchorPoint: "Anchor0" 1054 1386 basechar 0
AnchorPoint: "Anchor-1" 924 0 basechar 0
AnchorPoint: "Anchor-0" 1054 1386 basechar 0
LayerCount: 2
Fore
SplineSet
387 1017 m 257
 562 846 l 257
 530 814 l 258
 447 730 403 654 403 539 c 256
 403 419 522 360 640 360 c 256
 901 360 1239 536 1470 536 c 256
 1692 536 1884 466 2044 331 c 257
 1864 117 l 257
 1747 215 1625 255 1487 255 c 256
 1204 255 929 82 644 82 c 256
 361 82 121 256 121 538 c 256
 121 751 242 871 355 985 c 258
 387 1017 l 257
51 973 m 257
 233 1187 l 257
 344 1092 459 1056 587 1056 c 256
 851 1056 1240 1229 1505 1229 c 256
 1703 1229 1880 1170 2046 1025 c 257
 1862 815 l 257
 1747 914 1630 952 1499 952 c 256
 1238 952 847 778 582 778 c 256
 388 778 215 834 51 973 c 257
1325 442 m 257
 1583 334 l 257
 1545 244 1510 174 1443 85 c 256
 1366 -16 1302 -80 1216 -147 c 257
 1044 75 l 257
 1110 127 1167 185 1217 251 c 256
 1260 310 1297 374 1325 442 c 257
EndSplineSet
EndChar

StartChar: uni1734
Encoding: 32 5940 31
GlifName: uni1734
Width: 298
VWidth: 0
GlyphClass: 2
Flags: HMW
LayerCount: 2
Fore
SplineSet
-4 528 m 257
 276 528 l 257
 276 64 l 258
 275 -248 241 -420 90 -572 c 256
 -31 -691 -165 -740 -408 -740 c 258
 -592 -740 l 257
 -592 -460 l 257
 -408 -460 l 258
 -230 -459 -148 -434 -77 -339 c 256
 -14 -244 -4 -100 -4 64 c 258
 -4 528 l 257
EndSplineSet
EndChar

StartChar: uni1712.hollow
Encoding: 33 -1 32
GlifName: uni1712.hollow
Width: 0
VWidth: 0
GlyphClass: 4
Flags: HMW
AnchorPoint: "Mkmk" -630 1560 mark 0
AnchorPoint: "Mkmk" -34 1560 basemark 0
AnchorPoint: "Anchor0" -342 1306 mark 0
AnchorPoint: "Anchor-0" -342 1306 mark 0
LayerCount: 2
Fore
SplineSet
-424 1555 m 256
 -424 1506 -384 1467 -335 1467 c 256
 -286 1467 -246 1506 -246 1555 c 256
 -246 1604 -286 1644 -335 1644 c 256
 -384 1644 -424 1604 -424 1555 c 256
-557 1555 m 256
 -557 1677 -457 1777 -335 1777 c 256
 -213 1777 -113 1677 -113 1555 c 256
 -113 1433 -213 1333 -335 1333 c 256
 -457 1333 -557 1433 -557 1555 c 256
EndSplineSet
EndChar

StartChar: uni1713.hollow
Encoding: 34 -1 33
GlifName: uni1713.hollow
Width: 0
VWidth: 0
GlyphClass: 4
Flags: HMW
AnchorPoint: "Mkmk" 90 -200 basemark 0
AnchorPoint: "Mkmk" -506 -200 mark 0
AnchorPoint: "Anchor1" -196 60 mark 0
AnchorPoint: "Anchor-1" -196 60 mark 0
LayerCount: 2
Fore
SplineSet
-285 -198 m 256
 -285 -247 -245 -287 -196 -287 c 256
 -147 -287 -107 -247 -107 -198 c 256
 -107 -149 -147 -109 -196 -109 c 256
 -245 -109 -285 -149 -285 -198 c 256
-418 -198 m 256
 -418 -76 -318 24 -196 24 c 256
 -74 24 26 -76 26 -198 c 256
 26 -320 -74 -420 -196 -420 c 256
 -318 -420 -418 -320 -418 -198 c 256
EndSplineSet
EndChar

StartChar: uni170C.avar
Encoding: 35 -1 34
GlifName: uni170C_.avar
Width: 2158
VWidth: 0
GlyphClass: 2
Flags: HMW
AnchorPoint: "Anchor1" 1166 0 basechar 0
AnchorPoint: "Anchor0" 1040 1386 basechar 0
AnchorPoint: "Anchor-1" 1166 0 basechar 0
AnchorPoint: "Anchor-0" 1040 1386 basechar 0
LayerCount: 2
Fore
SplineSet
1771 916 m 256
 1825 916 1887 939 1887 993 c 256
 1887 1036 1848 1062 1803 1062 c 256
 1715 1062 1680 990 1641 927 c 258
 1418 559 l 258
 1301 368 1219 246 1087 113 c 256
 988 15 865 -80 700 -80 c 256
 554 -80 445 6 391 105 c 256
 356 171 338 248 338 337 c 256
 338 401 347 448 364 561 c 258
 381 672 l 257
 114 672 l 257
 114 952 l 257
 358 952 l 258
 433 952 497 950 545 926 c 256
 616 888 666 828 669 727 c 256
 667 617 618 428 618 337 c 256
 618 263 635 207 698 200 c 256
 827 201 926 345 993 430 c 256
 1127 602 1278 873 1403 1073 c 256
 1491 1214 1591 1342 1804 1342 c 256
 2006 1342 2167 1199 2167 994 c 256
 2167 773 1988 636 1771 636 c 256
 1643 636 1556 670 1466 724 c 257
 1592 962 l 257
 1644 938 1700 916 1771 916 c 256
EndSplineSet
EndChar

StartChar: uni170D.avar
Encoding: 36 -1 35
GlifName: uni170D_.avar
Width: 2096
VWidth: 0
GlyphClass: 2
Flags: HMW
AnchorPoint: "Anchor1" 1504 6 basechar 0
AnchorPoint: "Anchor0" 1054 1386 basechar 0
AnchorPoint: "Anchor-1" 1504 6 basechar 0
AnchorPoint: "Anchor-0" 1054 1386 basechar 0
LayerCount: 2
Fore
SplineSet
387 1017 m 257
 562 846 l 257
 530 814 l 258
 447 730 403 654 403 539 c 256
 403 419 522 360 640 360 c 256
 901 360 1239 536 1470 536 c 256
 1692 536 1884 466 2044 331 c 257
 1864 117 l 257
 1747 215 1625 255 1487 255 c 256
 1204 255 929 82 644 82 c 256
 361 82 121 256 121 538 c 256
 121 751 242 871 355 985 c 258
 387 1017 l 257
51 973 m 257
 233 1187 l 257
 344 1092 459 1056 587 1056 c 256
 851 1056 1240 1229 1505 1229 c 256
 1703 1229 1880 1170 2046 1025 c 257
 1862 815 l 257
 1747 914 1630 952 1499 952 c 256
 1238 952 847 778 582 778 c 256
 388 778 215 834 51 973 c 257
1373 736 m 257
 1632 628 l 257
 1582 492 1506 324 1419 197 c 256
 1314 44 1170 -116 1076 -187 c 257
 904 35 l 257
 1006 124 1128 268 1192 364 c 256
 1251 453 1328 582 1373 736 c 257
EndSplineSet
EndChar

StartChar: _ra_tail
Encoding: 37 -1 36
GlifName: _ra_tail
Width: 2096
VWidth: 0
GlyphClass: 2
Flags: HMW
LayerCount: 2
Fore
SplineSet
1325 442 m 261
 1583 334 l 257
 1545 244 1510 174 1443 85 c 256
 1366 -16 1302 -80 1216 -147 c 257
 1044 75 l 257
 1110 127 1167 185 1217 251 c 256
 1260 310 1297 374 1325 442 c 261
EndSplineSet
EndChar

StartChar: uni171F
Encoding: 39 5919 38
GlifName: uni171F_
Width: 1618
VWidth: 0
GlyphClass: 2
Flags: HMW
AnchorPoint: "Anchor1" 308 -210 basechar 0
AnchorPoint: "Anchor0" 1202 1764 basechar 0
AnchorPoint: "Anchor-0" 1202 1764 basechar 0
AnchorPoint: "Anchor-1" 308 -210 basechar 0
LayerCount: 2
Fore
SplineSet
245 239 m 257
 249 208 264 178 301 178 c 256
 338 178 353 182 382 277 c 258
 592 962 l 258
 657 1175 764 1646 1175 1646 c 256
 1395 1646 1606 1486 1606 1230 c 256
 1606 1093 1553 971 1455 892 c 257
 1505 825 1531 749 1531 663 c 256
 1531 533 1463 429 1376 368 c 257
 1448 289 1494 184 1494 64 c 256
 1494 -211 1247 -367 1010 -367 c 256
 886 -367 766 -333 655 -269 c 257
 794 -27 l 257
 867 -69 937 -87 1010 -87 c 256
 1145 -87 1214 -12 1214 64 c 256
 1214 174 1103 264 952 264 c 257
 952 544 l 257
 1178 514 1251 602 1251 663 c 256
 1251 752 1160 784 1100 784 c 257
 1100 1064 l 257
 1238 1064 1326 1124 1326 1230 c 256
 1326 1314 1269 1366 1175 1366 c 256
 1033 1366 946 1162 860 880 c 258
 650 195 l 258
 613 76 520 -102 301 -102 c 256
 121 -102 -13 46 -33 203 c 257
 245 239 l 257
EndSplineSet
EndChar

StartChar: uni1714.salt
Encoding: 40 -1 39
GlifName: uni1714.salt
Width: 0
VWidth: 0
GlyphClass: 4
Flags: HMW
AnchorPoint: "Anchor1" -528 0 mark 0
AnchorPoint: "Anchor-1" -528 0 mark 0
LayerCount: 2
Fore
SplineSet
-776 -416 m 257
 -652 -292 l 257
 -778 -166 l 257
 -652 -40 l 257
 -526 -166 l 257
 -400 -40 l 257
 -274 -166 l 257
 -400 -292 l 257
 -276 -416 l 257
 -402 -542 l 257
 -526 -418 l 257
 -649 -542 l 257
 -776 -416 l 257
EndSplineSet
EndChar

StartChar: pahantig
Encoding: 41 -1 40
GlifName: pahantig
Width: 568
VWidth: 0
GlyphClass: 2
Flags: HMW
LayerCount: 2
Fore
SplineSet
75 613 m 256
 75 735 175 835 297 835 c 256
 419 835 519 735 519 613 c 256
 519 491 419 391 297 391 c 256
 175 391 75 491 75 613 c 256
EndSplineSet
EndChar

StartChar: pahantig_hollow
Encoding: 42 -1 41
GlifName: pahantig_hollow
Width: 568
VWidth: 0
GlyphClass: 2
Flags: HMW
LayerCount: 2
Fore
SplineSet
208 615 m 256
 208 566 248 527 297 527 c 256
 346 527 386 566 386 615 c 256
 386 664 346 704 297 704 c 256
 248 704 208 664 208 615 c 256
75 615 m 256
 75 737 175 837 297 837 c 256
 419 837 519 737 519 615 c 256
 519 493 419 393 297 393 c 256
 175 393 75 493 75 615 c 256
EndSplineSet
EndChar

StartChar: padalawa
Encoding: 43 -1 42
GlifName: padalawa
Width: 568
VWidth: 0
GlyphClass: 2
Flags: HMW
LayerCount: 2
Fore
SplineSet
75 893 m 260
 75 1015 175 1115 297 1115 c 256
 419 1115 519 1015 519 893 c 256
 519 771 419 671 297 671 c 256
 175 671 75 771 75 893 c 260
75 273 m 256
 75 395 175 495 297 495 c 256
 419 495 519 395 519 273 c 256
 519 151 419 51 297 51 c 256
 175 51 75 151 75 273 c 256
EndSplineSet
EndChar

StartChar: padalawa_hollow
Encoding: 44 -1 43
GlifName: padalawa_hollow
Width: 568
VWidth: 0
GlyphClass: 2
Flags: HMW
LayerCount: 2
Back
SplineSet
74.716796875 273.33984375 m 256
 74.716796875 395.33984375 174.716796875 495.33984375 296.715820312 495.33984375 c 256
 418.715820312 495.33984375 518.715820312 395.33984375 518.715820312 273.33984375 c 256
 518.715820312 151.33984375 418.715820312 51.33984375 296.715820312 51.33984375 c 256
 174.716796875 51.33984375 74.716796875 151.33984375 74.716796875 273.33984375 c 256
EndSplineSet
Refer: 41 -1 N 1 0 0 1 0 280 2
Fore
SplineSet
208 895 m 256
 208 846 248 807 297 807 c 256
 346 807 386 846 386 895 c 256
 386 944 346 984 297 984 c 256
 248 984 208 944 208 895 c 256
75 895 m 256
 75 1017 175 1117 297 1117 c 256
 419 1117 519 1017 519 895 c 256
 519 773 419 673 297 673 c 256
 175 673 75 773 75 895 c 256
75 273 m 256
 75 395 175 495 297 495 c 256
 419 495 519 395 519 273 c 256
 519 151 419 51 297 51 c 256
 175 51 75 151 75 273 c 256
EndSplineSet
EndChar

StartChar: padalawa_hollow2
Encoding: 45 -1 44
GlifName: padalawa_hollow2
Width: 568
VWidth: 0
GlyphClass: 2
Flags: HMW
LayerCount: 2
Back
SplineSet
74.716796875 893.33984375 m 256
 74.716796875 1015.33984375 174.716796875 1115.33984375 296.715820312 1115.33984375 c 256
 418.715820312 1115.33984375 518.715820312 1015.33984375 518.715820312 893.33984375 c 256
 518.715820312 771.33984375 418.715820312 671.33984375 296.715820312 671.33984375 c 256
 174.716796875 671.33984375 74.716796875 771.33984375 74.716796875 893.33984375 c 256
EndSplineSet
Refer: 41 -1 N 1 0 0 1 0 -340 2
Fore
SplineSet
208 275 m 256
 208 226 248 187 297 187 c 256
 346 187 386 226 386 275 c 256
 386 324 346 364 297 364 c 256
 248 364 208 324 208 275 c 256
75 275 m 256
 75 397 175 497 297 497 c 256
 419 497 519 397 519 275 c 256
 519 153 419 53 297 53 c 256
 175 53 75 153 75 275 c 256
75 893 m 256
 75 1015 175 1115 297 1115 c 256
 419 1115 519 1015 519 893 c 256
 519 771 419 671 297 671 c 256
 175 671 75 771 75 893 c 256
EndSplineSet
EndChar

StartChar: padalawa_hollow_hollow
Encoding: 46 -1 45
GlifName: padalawa_hollow_hollow
Width: 568
VWidth: 0
GlyphClass: 2
Flags: HMW
LayerCount: 2
Back
Refer: 41 -1 N 1 0 0 1 0 -340 2
Refer: 41 -1 N 1 0 0 1 0 280 2
Fore
SplineSet
208 895 m 256
 208 846 248 807 297 807 c 256
 346 807 386 846 386 895 c 256
 386 944 346 984 297 984 c 256
 248 984 208 944 208 895 c 256
75 895 m 256
 75 1017 175 1117 297 1117 c 256
 419 1117 519 1017 519 895 c 256
 519 773 419 673 297 673 c 256
 175 673 75 773 75 895 c 256
208 275 m 256
 208 226 248 187 297 187 c 256
 346 187 386 226 386 275 c 256
 386 324 346 364 297 364 c 256
 248 364 208 324 208 275 c 256
75 275 m 256
 75 397 175 497 297 497 c 256
 419 497 519 397 519 275 c 256
 519 153 419 53 297 53 c 256
 175 53 75 153 75 275 c 256
EndSplineSet
EndChar
